<?xml version="1.0" standalone="no"?>
<!DOCTYPE svg PUBLIC "-//W3C//DTD SVG 20010904//EN"
 "http://www.w3.org/TR/2001/REC-SVG-20010904/DTD/svg10.dtd">
<svg version="1.0" xmlns="http://www.w3.org/2000/svg"
 width="512.000000pt" height="512.000000pt" viewBox="0 0 512.000000 512.000000"
 preserveAspectRatio="xMidYMid meet">
<metadata>
Created by potrace 1.14, written by Peter Selinger 2001-2017
</metadata>
<g transform="translate(0.000000,512.000000) scale(0.100000,-0.100000)"
fill="#000000" stroke="none">
<path d="M2487 5113 c-1 -1 -38 -4 -82 -8 -114 -8 -155 -13 -240 -30 -16 -3
-39 -8 -50 -9 -85 -16 -276 -72 -342 -102 -17 -8 -34 -14 -37 -14 -7 0 -153
-66 -176 -80 -8 -5 -37 -21 -65 -36 -49 -26 -145 -87 -175 -111 -8 -6 -38 -29
-66 -50 -98 -73 -263 -226 -314 -292 -9 -11 -30 -35 -47 -54 -32 -35 -163
-213 -163 -222 0 -2 -15 -28 -33 -57 -33 -54 -137 -260 -137 -273 0 -4 -6 -21
-14 -38 -31 -72 -38 -94 -62 -186 -52 -193 -76 -367 -77 -541 0 -86 10 -240
17 -261 3 -8 7 -32 10 -54 12 -101 40 -214 92 -374 23 -70 79 -199 125 -286
23 -44 47 -90 53 -102 6 -13 14 -23 19 -23 4 0 7 -5 7 -10 0 -23 146 -224 233
-322 23 -26 371 -378 774 -781 697 -698 734 -734 779 -744 37 -9 58 -8 94 3
43 13 111 77 781 748 404 404 744 747 756 763 12 15 38 46 57 67 20 22 42 49
51 60 8 12 39 55 70 98 30 42 55 79 55 83 0 3 15 29 33 58 17 29 54 97 81 152
50 104 56 117 80 176 18 47 87 282 91 312 1 12 8 51 15 87 7 36 14 79 16 95 1
17 5 57 9 90 12 109 8 275 -10 420 -17 136 -81 385 -121 473 -13 29 -24 56
-24 60 0 12 -119 243 -141 274 -10 14 -19 29 -19 33 0 6 -48 74 -60 85 -4 3
-16 21 -28 41 -12 19 -32 47 -44 61 -13 14 -41 47 -63 73 -42 50 -164 173
-211 213 -30 25 -113 93 -129 104 -5 4 -23 18 -40 31 -139 106 -366 220 -580
292 -49 17 -241 66 -275 70 -14 2 -54 8 -90 14 -96 16 -375 33 -383 24z"/>
</g>
</svg>
